<?xml version="1.0" encoding="UTF-8"?>
<svg version="1.1" xmlns="http://www.w3.org/2000/svg" width="653" height="560">
<path d="M0 0 C1.80304913 0.63637028 3.60642208 1.271824 5.41015625 1.90625 C6.18625244 2.18791016 6.96234863 2.46957031 7.76196289 2.75976562 C17.59569324 6.10572797 27.94588675 4.13169278 38.0546875 2.94726562 C46.67568066 2.09723131 53.66879823 3.13953804 60.625 8.625 C67.23687335 14.1156291 71.93132633 20.85015219 72.9375 29.5 C73.45401705 36.11366398 72.54206796 42.24847211 71.3984375 48.75390625 C69.405139 60.62923542 74.84489974 68.85824424 81.40771484 78.234375 C86.56715234 85.63798194 87.72114311 91.43912654 86.9375 100.5 C85.75 104.1875 85.75 104.1875 83.9375 106.5 C81.625 107.625 81.625 107.625 78.9375 107.5 C77.50963565 106.57022786 76.08652272 105.63050392 74.7109375 104.625 C67.41071683 99.99402301 58.29674524 99.50996649 49.9375 100.5 C37.83655079 103.42825451 24.03625008 108.5947618 15.9375 118.5 C11.46931468 129.53460632 12.93399317 139.56103948 15.4375 150.8125 C17.57844083 160.48040987 18.21273961 168.67712699 17.125 178.46435547 C16.78462536 182.15972492 16.76419569 185.85377544 16.75 189.5625 C16.73126831 190.58053711 16.73126831 190.58053711 16.7121582 191.61914062 C16.69928041 196.58874081 17.64688069 200.74613581 18.9375 205.5 C19.57717533 211.57691561 18.37424294 214.63128084 14.9375 219.5 C12.01119646 221.90374933 8.63858313 221.99536818 4.8984375 221.86328125 C1.26756171 221.19062896 0.00837944 219.45839921 -2.0625 216.5 C-2.99303475 213.92282332 -3.736329 211.36844207 -4.38671875 208.70703125 C-4.92849569 206.32127305 -4.92849569 206.32127305 -7.0625 204.5 C-11.23565511 204.76990555 -13.36941078 206.26067954 -16.375 209.0625 C-17.07238281 209.70316406 -17.76976562 210.34382812 -18.48828125 211.00390625 C-19.00777344 211.49761719 -19.52726562 211.99132812 -20.0625 212.5 C-23.0325 210.025 -23.0325 210.025 -26.0625 207.5 C-26.7225 207.83 -27.3825 208.16 -28.0625 208.5 C-28.55178347 212.60998119 -28.2413048 214.22653384 -25.9375 217.75 C-22.83153462 220.72092341 -21.30646661 221.91749478 -17.0625 222.5 C-15.00173853 221.86074338 -13.06482778 221.03739959 -11.07421875 220.20703125 C-7.55230585 218.96923274 -5.54364862 219.2106857 -2.0625 220.5 C0.31647729 223.29910573 2.16624155 226.28837754 3.9375 229.5 C7.31212715 228.95276317 9.01985 228.4451 11.9375 226.5 C14.35546875 226.48828125 14.35546875 226.48828125 17.125 226.8125 C18.09824219 226.91691406 19.07148438 227.02132812 20.07421875 227.12890625 C21.8309908 227.35659158 23.58505547 227.60880622 25.33203125 227.90234375 C29.12953495 228.67464004 29.12953495 228.67464004 32.625 227.4375 C33.058125 226.798125 33.49125 226.15875 33.9375 225.5 C38.52916667 219.82083333 38.52916667 219.82083333 41.5625 217.4375 C44.26395508 215.23368138 45.61407238 213.7350453 46.9375 210.5 C47.02203452 205.25885978 46.39897012 202.63274185 42.9375 198.6875 C42.133125 197.87345703 42.133125 197.87345703 41.3125 197.04296875 C38.20730998 193.55845154 38.72849219 189.08823448 38.5625 184.6875 C38.24379284 177.64044667 37.21093019 171.20291721 35.4609375 164.35546875 C34.9463819 161.54845276 34.68978051 160.05927578 35.9375 157.5 C37.78515625 156.453125 37.78515625 156.453125 40 155.75 C40.73347656 155.50765625 41.46695313 155.2653125 42.22265625 155.015625 C42.78855469 154.84546875 43.35445312 154.6753125 43.9375 154.5 C42.56377157 151.27381958 41.11099116 149.64121463 38.3125 147.5625 C35.05313476 144.83038502 35.05313476 144.83038502 34.0625 142 C35.47184128 137.97331062 38.42649192 135.78978788 41.9375 133.5 C44.8125 132.5625 44.8125 132.5625 46.9375 132.5 C48.53103242 134.09353242 48.36304028 136.0566523 48.6875 138.25 C49.59444387 143.05268005 50.98608604 145.43765418 54.9375 148.5 C58.41075876 150.23662938 62.13995679 149.95412562 65.9375 149.5 C70.45741824 147.14178179 71.84361979 144.11321137 73.37890625 139.47265625 C74.03229809 137.16522354 74.56719419 134.86995721 74.9375 132.5 C77.86511527 132.82529059 80.26365294 133.09569177 82.8125 134.625 C84.71378671 137.79381118 84.47315315 139.86946201 83.9375 143.5 C82.23953342 146.44534009 80.20675846 148.9757102 77.9375 151.5 C77.33808594 152.20382813 76.73867188 152.90765625 76.12109375 153.6328125 C73.40480704 155.9555049 71.22804354 156.45461141 67.75 157.1875 C64.03563615 157.7192644 64.03563615 157.7192644 60.9375 159.5 C62.2575 160.16 63.5775 160.82 64.9375 161.5 C64.03232759 167.18965517 64.03232759 167.18965517 63.25 169.75 C63.146875 170.3275 63.04375 170.905 62.9375 171.5 C63.5975 172.16 64.2575 172.82 64.9375 173.5 C71.52586155 173.5 78.02280991 169.31532565 82.65625 164.83984375 C86.04143639 160.8346959 87.00456741 158.38304734 87.25 153.25 C87.65407496 148.12498255 88.65947159 145.41248552 91.9375 141.5 C94.25 141.625 94.25 141.625 96.9375 142.5 C101.01956658 147.74837131 101.49451494 155.04666917 100.9375 161.5 C100.11248562 165.92416248 98.95773114 170.26828503 97.84228516 174.62646484 C96.08884669 181.83667217 95.47312218 188.71673523 95.3125 196.125 C94.69263234 220.26181014 82.40061576 243.6361088 64.9375 260.5 C62.34291894 261.79729053 60.33302402 261.7042812 57.4375 261.75 C56.4578125 261.77578125 55.478125 261.8015625 54.46875 261.828125 C53.6334375 261.71984375 52.798125 261.6115625 51.9375 261.5 C49.4716281 257.80119215 49.53946264 255.21297243 49.28125 250.875 C49.07327769 248.23805704 49.07327769 248.23805704 46.9375 245.5 C45.679375 245.62375 44.42125 245.7475 43.125 245.875 C42.41730469 245.94460938 41.70960938 246.01421875 40.98046875 246.0859375 C38.63761858 246.42665391 38.63761858 246.42665391 35.9375 248.5 C29.9114883 249.17047658 26.65361049 246.84167346 21.71875 243.71484375 C17.39083665 241.82442092 14.26315287 243.05811571 9.9375 244.5 C9.628125 245.11875 9.31875 245.7375 9 246.375 C7.66606983 249.04286034 6.57824667 250.10627259 3.9375 251.5 C1.0625 251.625 1.0625 251.625 -2.0625 250.5 C-3.81094744 248.80127144 -5.2883253 247.03171305 -6.765625 245.09375 C-8.80545982 242.58696504 -10.06022335 242.50026269 -13.3125 242.125 C-18.03876194 242.59762619 -19.51139851 244.46676748 -23.0625 247.5 C-26.625 248.5 -26.625 248.5 -30.0625 248.5 C-31.75006133 247.53567924 -33.41916496 246.53789581 -35.0625 245.5 C-37.75055807 245.40383904 -37.75055807 245.40383904 -40.0625 246.5 C-42.16112498 249.39810116 -42.0625 250.78378861 -42.0625 254.5 C-41.010625 254.0359375 -41.010625 254.0359375 -39.9375 253.5625 C-34.35661765 251.5 -34.35661765 251.5 -31.0625 251.5 C-29.21875 252.84765625 -29.21875 252.84765625 -27.25 254.5625 C-24.41323738 256.97016658 -24.41323738 256.97016658 -20.8671875 257.4921875 C-18.56152447 256.92179699 -16.32484096 256.22194157 -14.0625 255.5 C-9.32939525 254.57114839 -5.91363347 254.23489285 -1.25 255.6875 C3.61560098 257.16749394 7.31071531 255.18248068 11.90625 253.4765625 C16.84074701 251.88684053 22.00767758 251.16934745 26.85546875 253.37109375 C28.71508972 254.57697623 30.36847845 255.93097845 31.9375 257.5 C32.38543262 265.41347626 32.38543262 265.41347626 29.9375 268.5 C24.33082671 272.70500497 19.83170482 273.32655317 12.9375 272.5 C10.61929804 272.00516339 8.30688351 271.4826716 6 270.9375 C-1.47680883 269.21897422 -8.105471 268.79304632 -15.25 271.875 C-16.1471875 272.679375 -16.1471875 272.679375 -17.0625 273.5 C-17.0625 274.49 -17.0625 275.48 -17.0625 276.5 C-11.27082592 278.81666963 -6.28244698 279.05425317 -0.203125 278.0078125 C8.90767518 276.53467317 17.88392773 276.568926 25.9375 281.5 C29.60299098 285.07821738 30.20885883 288.0438665 30.4375 293 C30.17141533 299.545683 27.81597493 302.62152507 23.25 307.1875 C15.55195197 313.10081823 6.23122486 313.08782616 -3.0715332 313.11083984 C-5.23038112 313.12487248 -7.38333449 313.19228293 -9.54101562 313.26171875 C-22.61709178 313.46749164 -32.33784029 309.04105339 -42.5625 300.8125 C-43.08328125 300.39661621 -43.6040625 299.98073242 -44.140625 299.55224609 C-45.79610385 298.21850167 -47.43131954 296.86332447 -49.0625 295.5 C-49.6296875 295.02900879 -50.196875 294.55801758 -50.78125 294.07275391 C-59.46657656 286.82932727 -67.81079368 279.23083449 -76.0625 271.5 C-76.0625 274.67748949 -75.58495135 275.80518145 -74.15625 278.5625 C-73.74640869 279.35398437 -73.33656738 280.14546875 -72.91430664 280.9609375 C-72.46821045 281.79882812 -72.02211426 282.63671875 -71.5625 283.5 C-71.10544678 284.35851562 -70.64839355 285.21703125 -70.17749023 286.1015625 C-57.74840566 309.05690056 -38.51198663 326.18419285 -13.6171875 334.296875 C-10.12739979 335.17263922 -6.60238124 335.55834577 -3.03515625 335.98046875 C-1.94847656 336.11038208 -1.94847656 336.11038208 -0.83984375 336.24291992 C0.61592481 336.41189306 2.07301043 336.5699433 3.53125 336.71606445 C8.72034007 337.28284007 8.72034007 337.28284007 10.9375 339.5 C12.18420631 345.87205447 9.37964904 350.01681555 6.07421875 355.3671875 C2.67369092 360.35297053 -1.14137508 364.92036556 -5.0625 369.5 C-5.84625 370.53125 -6.63 371.5625 -7.4375 372.625 C-12.85318796 378.55646777 -19.04229764 384.67966035 -27.0625 386.5 C-42.28893228 384.72447963 -60.35279365 365.2789637 -69.6875 354.25 C-78.44783927 343.09759702 -85.76875327 331.19314389 -92.0625 318.5 C-92.44535156 317.77683594 -92.82820313 317.05367188 -93.22265625 316.30859375 C-99.8240269 302.09261882 -92.63258465 284.26925451 -88.0625 270.5 C-87.47258041 269.05800856 -86.87583359 267.61877384 -86.26953125 266.18359375 C-84.00299867 259.26663511 -86.48721119 254.02237946 -89.3125 247.75 C-95.47377502 233.34877508 -98.82467363 219.17491976 -99.0625 203.5 C-101.1367938 205.53993696 -103.07817534 207.51999957 -104.875 209.8125 C-107.0625 211.5 -107.0625 211.5 -110.5625 211.5 C-115.03427291 210.2223506 -116.75488108 208.49583941 -119.25 204.6875 C-121.77378713 197.8926885 -121.8194016 189.61847933 -121.0625 182.5 C-119.01608477 178.1598686 -116.67855575 176.31181851 -112.68359375 173.90625 C-109.99398798 171.573098 -109.17714693 168.61720267 -108.81958008 165.1328125 C-108.82368896 164.30523437 -108.82779785 163.47765625 -108.83203125 162.625 C-108.83356201 161.65771973 -108.83509277 160.69043945 -108.83666992 159.69384766 C-108.84931885 158.63987793 -108.86196777 157.5859082 -108.875 156.5 C-108.88140503 154.83203369 -108.88140503 154.83203369 -108.88793945 153.13037109 C-108.93905411 146.07272736 -109.13598046 139.02886329 -109.3984375 131.9765625 C-109.45609422 130.32943131 -109.51362982 128.68229588 -109.57104492 127.03515625 C-109.68372912 123.82037745 -109.82013519 120.60776831 -109.9699707 117.39453125 C-110.49342234 104.51181427 -108.40633088 94.25928367 -102.5 82.6875 C-98.4877182 74.70830954 -95.76043681 68.19527539 -96.125 59.0625 C-96.43150669 43.01884902 -92.86445676 26.82599521 -82.0625 14.5 C-81.56234375 13.89542969 -81.0621875 13.29085937 -80.546875 12.66796875 C-69.86161398 0.76375805 -53.2809254 -1.68974384 -38.1875 -3.25 C-37.01058594 -3.38792969 -35.83367187 -3.52585937 -34.62109375 -3.66796875 C-22.32118515 -4.98050025 -11.63313733 -4.26919852 0 0 Z M-87.9609375 112.44921875 C-93.44337477 119.25546405 -95.81521125 126.24133091 -95.53515625 134.99609375 C-95.02515716 137.69782445 -94.51158601 138.84340087 -92.5625 140.75 C-87.99987556 143.03131222 -85.95997373 142.59770963 -81.0625 141.5 C-80.815 142.345625 -80.5675 143.19125 -80.3125 144.0625 C-78.69711205 148.50481686 -77.03448602 153.03691359 -73.125 155.9375 C-70.55610325 156.63810821 -68.70993706 156.90729801 -66.0625 156.5 C-64.21934329 154.5995533 -64.21934329 154.5995533 -63.0625 152.5 C-64.01125 151.9225 -64.96 151.345 -65.9375 150.75 C-70.14163669 147.72302158 -70.14163669 147.72302158 -71.0625 144.5 C-71.51391098 140.36206601 -71.46410482 138.19908987 -69.375 134.5625 C-67.0625 132.5 -67.0625 132.5 -64.3125 132.1875 C-63.57 132.290625 -62.8275 132.39375 -62.0625 132.5 C-62.10890625 133.08007812 -62.1553125 133.66015625 -62.203125 134.2578125 C-62.39243515 138.35502495 -62.27976047 141.02021646 -60.5625 144.8125 C-57.42620679 148.1840152 -54.47962614 150.16824474 -50.0625 151.5 C-45.92790175 151.5 -43.79186563 150.96414177 -40.3125 148.75 C-34.75000926 143.18750926 -34.44877931 138.10570633 -34.0625 130.5 C-30.9243336 131.33684437 -28.56274989 132.07791415 -26.0625 134.1875 C-25.0625 136.5 -25.0625 136.5 -25.625 139.875 C-27.0583817 143.48961473 -28.84584351 146.32279236 -31.0625 149.5 C-31.0625 150.16 -31.0625 150.82 -31.0625 151.5 C-27.95753758 151.95438474 -25.85801596 152.06969208 -23.24609375 150.19921875 C-22.06395475 149.12942126 -20.90478253 148.03353406 -19.7734375 146.91015625 C-17.87344239 145.34417854 -16.46462881 144.914341 -14.0625 144.5 C-14.89924117 151.92057302 -15.53825932 157.51632684 -20.0625 163.5 C-21.49525518 167.52962393 -21.09251983 169.97446057 -19.5 173.8125 C-17.15876589 178.60917476 -14.47278764 183.37842379 -11.0625 187.5 C-10.4025 187.5 -9.7425 187.5 -9.0625 187.5 C-6.0035894 181.02230696 -7.13566455 173.84582842 -8.58984375 167.02734375 C-10.11996591 158.84561616 -9.26267831 150.67375941 -7.5 142.625 C-5.74942926 134.61053871 -5.50540322 127.74054402 -10.0625 120.5 C-15.33558742 113.97018167 -21.90952703 109.73361201 -29.0625 105.5 C-29.6915625 105.08621094 -30.320625 104.67242187 -30.96875 104.24609375 C-47.31866938 93.79602735 -74.80305929 98.93938083 -87.9609375 112.44921875 Z " fill="#FEFEFE" transform="translate(322.0625,97.5)"/>
<path d="M0 0 C1.59521484 -0.04350586 1.59521484 -0.04350586 3.22265625 -0.08789062 C14.61931396 -0.17878421 23.25056726 3.4587965 31.5 11.3125 C33.99640904 14.20501822 36.29848287 17.19073455 38.5 20.3125 C39.01046875 20.0959375 39.5209375 19.879375 40.046875 19.65625 C46.95291032 17.01138541 54.29203915 15.81595953 61.5390625 17.8984375 C66.97159378 20.6023001 70.71544892 25.71205868 74.5 30.3125 C75.01433594 30.15394531 75.52867187 29.99539062 76.05859375 29.83203125 C87.07049338 27.48869901 97.83182622 29.16667531 107.33984375 35.078125 C123.03415191 46.01462507 135.55377938 62.55508191 139.22265625 81.703125 C140.21148105 91.00643436 140.07894139 100.28620513 137.5 109.3125 C138.180625 109.4775 138.86125 109.6425 139.5625 109.8125 C149.15092484 114.70871694 153.47733219 125.80755875 156.625 135.5 C160.50405624 148.90464193 162.45575317 162.43121886 163.5 176.3125 C163.64695312 178.26542969 163.64695312 178.26542969 163.796875 180.2578125 C164.15636467 189.66445891 162.07732814 197.49380311 159.13378906 206.30029297 C158.09446982 209.60001147 157.30433361 212.94858138 156.5 216.3125 C157.22445313 216.91835937 157.94890625 217.52421875 158.6953125 218.1484375 C170.4927463 228.37288013 175.5927109 238.71661389 177.5 254.3125 C178.57954847 272.76862676 174.94054115 287.70338885 162.890625 301.828125 C156.19437999 308.78696785 147.83506211 313.17301584 138.125 313.8125 C130.43769539 313.60572124 122.8832865 310.99331894 115.53955078 308.88500977 C113.53465286 308.32222719 111.52252523 307.80776011 109.5 307.3125 C108.18 309.2925 106.86 311.2725 105.5 313.3125 C106.11294922 313.65394043 106.72589844 313.99538086 107.35742188 314.34716797 C151.18311825 338.80859349 151.18311825 338.80859349 155.5 350.3125 C158.55677471 362.22338075 153.55705716 374.16746581 148.625 384.875 C148.15392822 385.92349121 147.68285645 386.97198242 147.19750977 388.05224609 C144.4998778 394.02774047 141.73231532 399.97046122 138.95703125 405.91015625 C138.66302429 406.54021072 138.36901733 407.1702652 138.06610107 407.81941223 C136.63348544 410.88747141 135.19343506 413.95137084 133.74072266 417.01000977 C132.9544751 418.67954712 132.9544751 418.67954712 132.15234375 420.3828125 C131.68820068 421.36008301 131.22405762 422.33735352 130.74584961 423.34423828 C129.36411825 426.63624099 128.41896089 429.86525366 127.5 433.3125 C132.72826115 435.71031272 137.9576365 438.10568433 143.1875 440.5 C143.97974976 440.86286102 144.77199951 441.22572205 145.58825684 441.59957886 C154.95827117 445.88974226 164.34081091 450.14681363 173.76098633 454.32568359 C264.21808839 494.49367532 264.21808839 494.49367532 280.4921875 534.49609375 C282.69931501 540.66407412 283.83953732 546.24977699 284.125 552.75 C284.18300781 553.84731445 284.18300781 553.84731445 284.2421875 554.96679688 C284.33533984 556.74833532 284.41870286 558.53038122 284.5 560.3125 C282.85425434 560.33938151 281.20838587 560.35884123 279.5625 560.375 C278.64597656 560.38660156 277.72945312 560.39820313 276.78515625 560.41015625 C274.5 560.3125 274.5 560.3125 273.5 559.3125 C273.05585412 557.0677627 272.64556585 554.8163054 272.25 552.5625 C268.31929937 531.82663003 258.08173737 514.36833855 240.71069336 502.23095703 C214.03381979 484.54827876 183.21837917 471.65357389 153.99755859 458.84667969 C148.19908304 456.30321882 142.40692474 453.74587545 136.62213135 451.17144775 C134.73812417 450.33497639 132.85132948 449.50504447 130.96435547 448.67529297 C129.81467285 448.16369629 128.66499023 447.65209961 127.48046875 447.125 C126.46879639 446.67769531 125.45712402 446.23039062 124.41479492 445.76953125 C119.92030185 443.5228494 116.31392942 441.53339412 113.5 437.3125 C113.69370109 430.81088067 116.40186334 425.40871867 119.0625 419.5625 C119.53486084 418.50571045 120.00722168 417.4489209 120.49389648 416.36010742 C123.53180695 409.5890937 126.62703511 402.84423141 129.71875 396.09765625 C130.07799057 395.31335236 130.43723114 394.52904846 130.80735779 393.72097778 C132.5961283 389.81737173 134.38940157 385.91595755 136.19165039 382.01855469 C136.85826335 380.57097628 137.52484984 379.12338569 138.19140625 377.67578125 C138.49618896 377.02045914 138.80097168 376.36513702 139.11499023 375.68995667 C141.57707941 370.3307982 143.77956853 365.26742401 143.875 359.3125 C143.90335937 358.508125 143.93171875 357.70375 143.9609375 356.875 C143.12697613 352.2387402 140.53517157 349.2096487 137.0390625 346.1796875 C127.44259508 339.61909986 117.32395336 334.1296843 107.06542969 328.67675781 C104.14757611 327.12508615 101.23915626 325.5565087 98.33203125 323.98486328 C96.05734687 322.75577896 93.77894156 321.53366868 91.5 320.3125 C91.18816704 308.9644917 97.82522316 301.8699062 104.5 293.3125 C106.12565107 293.71891277 107.75126276 294.12548357 109.37670898 294.53271484 C110.80786668 294.8898049 112.23968858 295.24424207 113.67211914 295.59619141 C117.40389313 296.51702404 121.11489889 297.47499327 124.80859375 298.5390625 C133.77626213 301.07244457 140.0341839 302.10118168 148.5625 297.75 C159.53824243 288.64246904 163.72177664 279.31867074 165.3125 265.2578125 C165.80251559 254.94706788 164.63146346 242.69491724 157.9296875 234.359375 C156.19215963 232.5673059 154.40124365 230.92915001 152.5 229.3125 C151.84902344 228.75433594 151.19804688 228.19617188 150.52734375 227.62109375 C149.32212801 226.59406186 148.10821901 225.57707385 146.8828125 224.57421875 C144.31726604 222.23333878 144.47637942 220.9300716 144.25390625 217.328125 C144.31577333 211.90553012 145.7536845 207.17944962 147.4375 202.0625 C147.99020141 200.32873595 148.54104332 198.5943778 149.08984375 196.859375 C149.33597412 196.10495117 149.58210449 195.35052734 149.83569336 194.57324219 C151.31583641 189.53607768 151.58995438 185.03104425 151.25 179.8125 C151.20262695 179.079104 151.15525391 178.34570801 151.10644531 177.59008789 C149.30480904 147.37678023 149.30480904 147.37678023 135.0625 121.9375 C132.89463642 120.20135229 131.39233943 119.2733507 128.75 118.3125 C126.5 117.3125 126.5 117.3125 124.5 114.8125 C123.23883678 110.39842873 124.11758403 108.00578644 125.640625 103.77734375 C129.28452875 93.32596526 127.23457502 82.39073801 123.01953125 72.41796875 C116.65800531 59.41690674 108.08721044 48.17817031 94.4375 42.375 C88.45268219 40.44829809 82.94758914 40.34046396 77.25 43.125 C75.9861293 43.82985097 74.7366696 44.56094673 73.5 45.3125 C72.59765625 45.85261719 71.6953125 46.39273438 70.765625 46.94921875 C70.01796875 47.39910156 69.2703125 47.84898438 68.5 48.3125 C67.98050781 47.19230469 67.46101563 46.07210937 66.92578125 44.91796875 C66.22211036 43.44495102 65.51764115 41.97231447 64.8125 40.5 C64.47283203 39.76201172 64.13316406 39.02402344 63.78320312 38.26367188 C61.69713356 33.9550609 60.1476219 31.18630311 55.5 29.3125 C48.95526721 29.20157233 45.1206807 31.45362194 39.796875 35.1328125 C37.5 36.3125 37.5 36.3125 35.46875 36.375 C32.44071407 34.74082188 31.02427942 32.02807196 29.25 29.1875 C23.9769073 21.18943021 18.73742132 15.61913156 9.5 12.3125 C6.75144821 12.02258037 4.29924728 11.88386886 1.5625 11.9375 C0.41382446 11.95055176 0.41382446 11.95055176 -0.75805664 11.96386719 C-22.13715078 12.48142835 -44.20855226 15.92009627 -64.08203125 23.9453125 C-65.20996094 24.39648438 -66.33789062 24.84765625 -67.5 25.3125 C-68.54929687 25.75722656 -69.59859375 26.20195312 -70.6796875 26.66015625 C-73.5 27.3125 -73.5 27.3125 -75.73828125 26.30078125 C-76.42277344 25.74777344 -77.10726563 25.19476562 -77.8125 24.625 C-87.51215959 17.55603011 -98.67805458 16.36268006 -110.46020508 17.91455078 C-125.95288738 20.38661506 -148.46895122 27.33743582 -158.3359375 40.3203125 C-161.23132109 45.27549917 -163.18766191 50.79833297 -163.89453125 56.48828125 C-164.69323046 61.28622257 -165.59421199 64.82577874 -169.57177734 67.92871094 C-174.87320228 71.30714096 -180.4684896 74.13125592 -186.05615234 77.00048828 C-195.30416379 81.96540472 -203.44870105 89.66768283 -206.92578125 99.77734375 C-207.8656799 103.92696433 -208.27201337 108.17413322 -208.59082031 112.4140625 C-209.20340166 118.96964505 -211.34321474 123.18221902 -216.04296875 127.82421875 C-216.91566406 128.54222656 -217.78835937 129.26023438 -218.6875 130 C-222.95301817 133.36530237 -222.95301817 133.36530237 -224.5 138.3125 C-225.10260543 150.56547712 -222.53911504 162.70611785 -220.0859375 174.65625 C-219.04141012 181.17410086 -218.984446 185.64225161 -222.5 191.3125 C-223.67829661 192.79900845 -224.86663341 194.27758926 -226.0625 195.75 C-231.01547179 202.04331088 -232.01697346 207.35979521 -231.109375 215.21484375 C-229.44559258 223.67240437 -226.0052983 231.78683844 -222.1015625 239.4453125 C-221.039444 242.74201798 -222.26148193 244.83839947 -223.76953125 247.8359375 C-224.27871094 248.77695313 -224.78789062 249.71796875 -225.3125 250.6875 C-232.29058671 264.64367342 -234.97988773 279.39047289 -231.76953125 294.82421875 C-229.39584193 301.92590964 -226.15904478 307.1211527 -219.375 310.625 C-211.06991181 314.45438891 -201.64177269 314.7224704 -192.9375 311.8125 C-187.38850233 309.53535577 -182.42859156 306.31927008 -177.4453125 303.01953125 C-173.96885562 301.00466168 -171.45367187 299.79579528 -167.4765625 300.84765625 C-164.59277772 302.98484853 -162.81785691 305.78714322 -160.875 308.75 C-160.48054687 309.33587891 -160.08609375 309.92175781 -159.6796875 310.52539062 C-158.61126212 312.11539529 -157.55506932 313.71360151 -156.5 315.3125 C-155.51 316.7975 -155.51 316.7975 -154.5 318.3125 C-154.58449625 322.19932734 -155.08367028 323.86135525 -157.7421875 326.7421875 C-163.9802545 332.55613663 -170.70302012 337.75628545 -177.5625 342.8125 C-191.68659063 353.136163 -191.68659063 353.136163 -201.5 367.3125 C-202.00037462 374.28840943 -199.1165463 379.7773197 -195.6875 385.625 C-195.20192627 386.4816626 -194.71635254 387.3383252 -194.21606445 388.22094727 C-190.16345136 395.3196548 -185.89639547 402.28978615 -181.65356445 409.27563477 C-176.23716653 418.27313702 -171.90190711 427.04379621 -169.5 437.3125 C-184.53875431 445.07064585 -199.70070105 452.42780542 -215.1875 459.25 C-215.94143036 459.58237671 -216.69536072 459.91475342 -217.47213745 460.25720215 C-220.53583826 461.60718745 -223.60011768 462.9558486 -226.66511536 464.30288696 C-288.78755455 488.64310061 -288.78755455 488.64310061 -329.8203125 537.64453125 C-332.24308179 545.06538385 -333.53792256 552.57790373 -334.5 560.3125 C-338.13 560.3125 -341.76 560.3125 -345.5 560.3125 C-346.48858481 542.51797349 -340.0639251 524.16278 -328.51171875 510.5078125 C-327.84785156 509.78335937 -327.18398438 509.05890625 -326.5 508.3125 C-325.66082031 507.38179688 -324.82164062 506.45109375 -323.95703125 505.4921875 C-300.09737583 479.91351292 -263.97546547 466.91912812 -232.58856201 453.28106689 C-219.54112987 447.60862262 -206.65011952 441.69518798 -193.90332031 435.37548828 C-192.2670166 434.56700439 -192.2670166 434.56700439 -190.59765625 433.7421875 C-189.65414307 433.27022949 -188.71062988 432.79827148 -187.73852539 432.31201172 C-185.5 431.3125 -185.5 431.3125 -183.5 431.3125 C-188.8910805 421.45521963 -194.4243429 411.70751158 -200.1875 402.0625 C-216.19656245 375.07705955 -216.19656245 375.07705955 -213.96484375 364.86328125 C-207.44887204 345.55782089 -185.64537656 332.07608437 -169.5 321.3125 C-170.07584432 318.92685923 -170.72227595 316.64567216 -171.5 314.3125 C-172.65757812 314.93898438 -173.81515625 315.56546875 -175.0078125 316.2109375 C-176.54674271 317.03670493 -178.08581262 317.86221203 -179.625 318.6875 C-180.38554687 319.1 -181.14609375 319.5125 -181.9296875 319.9375 C-194.04553477 326.41321147 -205.87951249 327.72492314 -219.30859375 324.37890625 C-227.82265002 321.53394008 -234.46966645 315.68813067 -239.5 308.3125 C-242.59529556 301.97597684 -245.12029445 295.40033701 -245.5 288.3125 C-245.55027344 287.40628906 -245.60054688 286.50007813 -245.65234375 285.56640625 C-246.05925547 272.26853126 -243.68486914 260.47907967 -237.74975586 248.62768555 C-236.40786346 245.87671726 -235.47063033 243.83480385 -235.64453125 240.7421875 C-236.66835091 237.83435266 -237.76671773 234.97726186 -238.9375 232.125 C-243.26685 221.00132327 -245.91121415 209.07792513 -241.55859375 197.51953125 C-239.23825336 192.68192121 -236.29878179 188.11128179 -232.5 184.3125 C-232.02822513 177.80348104 -233.23420704 171.86330593 -234.5 165.5 C-239.69505425 137.2349978 -239.69505425 137.2349978 -233.26953125 126.40234375 C-231.18969869 123.94602936 -228.86602195 122.20486702 -226.3125 120.25 C-222.16616546 116.80083675 -220.91883861 114.41681231 -220.34814453 109.22900391 C-220.24078787 107.73938948 -220.13761716 106.24946763 -220.03857422 104.75927734 C-219.10338644 90.72528787 -211.888455 82.09808888 -201.82421875 72.890625 C-197.43059317 69.08172003 -192.68237849 66.2138856 -187.625 63.375 C-186.77164063 62.88193359 -185.91828125 62.38886719 -185.0390625 61.88085938 C-178.78329794 58.3125 -178.78329794 58.3125 -176.5 58.3125 C-176.438125 57.095625 -176.37625 55.87875 -176.3125 54.625 C-175.038169 43.54006598 -170.17296342 32.97692029 -161.61328125 25.7109375 C-141.94682698 11.70093008 -115.09392462 2.22228349 -90.93359375 5.84765625 C-85.29349591 7.04364455 -80.32763128 8.46788807 -75.4765625 11.640625 C-69.80455593 13.56865885 -63.01954229 10.28299944 -57.5625 8.5 C-38.99258691 2.67301027 -19.42471355 0.17658831 0 0 Z " fill="#FEFEFE" transform="translate(362.5,-0.3125)"/>
<path d="M0 0 C2.125 0.375 2.125 0.375 4 1 C10.41169616 25.10070188 13.50927775 46.7833091 0.79296875 69.17578125 C-2.75347963 74.76201694 -6.78766863 79.90400922 -11 85 C-11.59039062 85.73089844 -12.18078125 86.46179688 -12.7890625 87.21484375 C-22.03285467 97.53496788 -40.84224815 109.38599142 -54.87890625 110.26171875 C-58.98875296 109.75461059 -61.81975174 107.50624502 -65 105 C-65.58523438 104.59910156 -66.17046875 104.19820313 -66.7734375 103.78515625 C-75.24049811 97.4827514 -79.76762863 86.69377717 -84.5 77.5 C-84.85054443 76.82984863 -85.20108887 76.15969727 -85.56225586 75.46923828 C-88.90565476 68.78244048 -88.90565476 68.78244048 -88 65 C-84.1519006 61.68319637 -79.53885122 61.18081105 -74.6875 60.3125 C-65.18323205 58.39772074 -57.40423191 54.70982662 -49 50 C-47.7482116 49.32660634 -46.49561773 48.65470765 -45.2421875 47.984375 C-37.87956615 43.98457443 -31.35369404 39.45238193 -25 34 C-24.31550781 33.47148437 -23.63101563 32.94296875 -22.92578125 32.3984375 C-13.82254626 25.13731096 -8.03123239 14.77373348 -3.19140625 4.36328125 C-2 2 -2 2 0 0 Z " fill="#FEFEFE" transform="translate(427,373)"/>
<path d="M0 0 C1.21082859 0.84242233 2.40235062 1.71404738 3.5625 2.625 C10.05742559 7.63446816 19.00970851 8.83682107 27 8 C28.83668205 7.6636309 30.67001514 7.30858026 32.5 6.9375 C42.10387623 5.12595053 47.86624282 6.82486156 56.1875 12.046875 C61.45956195 15.70802913 65.7590145 18.93869101 67.5625 25.3125 C68.52218839 31.47137932 67.71648584 37.53970363 64.125 42.6875 C62 44 62 44 60.02734375 43.8125 C57.44175949 42.77627355 56.81804991 41.70454193 55.4375 39.3125 C55.00695312 38.58804688 54.57640625 37.86359375 54.1328125 37.1171875 C53 35 53 35 51.8125 31.9375 C46.52762874 23.37236381 35.16647588 19.12878711 25.8828125 16.37109375 C22.92829334 15.78877151 19.99969754 15.94231351 17 16 C16.67 17.32 16.34 18.64 16 20 C16.56847656 20.36351563 17.13695312 20.72703125 17.72265625 21.1015625 C22.82782691 24.42546327 27.45773055 27.94095071 32 32 C31.125 36.875 31.125 36.875 30 38 C24.13896141 38.60931589 21.05065337 37.16149289 16.5 33.75 C6.20015239 26.63174431 -6.42685911 22.89900518 -19 25 C-29.23244092 28.81852023 -38.3957646 38.21599977 -43 48 C-43.67413187 49.66366116 -44.34214274 51.32983652 -45 53 C-46.08539063 52.95359375 -47.17078125 52.9071875 -48.2890625 52.859375 C-49.73434731 52.82183513 -51.17966211 52.78543736 -52.625 52.75 C-53.69427734 52.69972656 -53.69427734 52.69972656 -54.78515625 52.6484375 C-60.00476818 52.5526648 -62.87351561 53.53907761 -67 57 C-70.44160338 60.38161901 -70.69319496 64.22437202 -71.3125 68.8125 C-72.37469622 75.52313409 -73.82001937 79.48129349 -79 84 C-82.09173752 85.54586876 -84.59429552 85.29359521 -88 85 C-90.5 83.5 -90.5 83.5 -92 81 C-92.33882334 71.17412324 -86.0794407 63.88294466 -79.75 56.9375 C-70.45688736 47.04260739 -60.44026057 39.23332908 -49 32 C-48.13503906 31.43539062 -47.27007812 30.87078125 -46.37890625 30.2890625 C-43.8162417 28.90042654 -41.59748021 28.33281759 -38.75 27.75 C-32.87284986 26.23691256 -28.03931289 23.60293794 -24 19 C-23.21072301 16.37345337 -23.21072301 16.37345337 -23 14 C-25.40541929 12.79729036 -27.10366591 12.79683337 -29.7890625 12.68359375 C-31.20058594 12.62075195 -31.20058594 12.62075195 -32.640625 12.55664062 C-33.62546875 12.51732422 -34.6103125 12.47800781 -35.625 12.4375 C-36.61757812 12.39431641 -37.61015625 12.35113281 -38.6328125 12.30664062 C-41.08839838 12.20038931 -43.54408703 12.09835036 -46 12 C-45.875 9.26171875 -45.875 9.26171875 -45 6 C-31.3480929 -5.60005797 -15.9286747 -8.43553191 0 0 Z " fill="#FEFEFE" transform="translate(277,45)"/>
<path d="M0 0 C5.56180185 2.83428646 10.3856009 6.17702019 13 12 C12.75 15.875 12.75 15.875 12 19 C11.33613281 19.21914062 10.67226563 19.43828125 9.98828125 19.6640625 C3.95868746 21.82943487 0.48018284 23.56221431 -3 29 C-5.60701959 34.71061433 -5.94812203 40.21140579 -3.9375 46.125 C-0.02033545 51.93756675 4.88242367 55.76685939 11.6640625 57.72265625 C15.89891179 58.22545608 19.30237582 57.00831745 23 55 C25.68743506 52.72926391 25.68743506 52.72926391 28 50 C33.78623606 44.17339485 33.78623606 44.17339485 37.625 43.625 C42.14962494 46.2445197 44.3875639 51.16269169 46 56 C46.49352264 60.3203457 46.5549111 63.86495456 44.625 67.8125 C37.74228139 73.54809884 28.75279341 75.38972833 19.99609375 75.2734375 C9.35348924 74.30214374 -1.30558729 68.14528108 -8.6875 60.5625 C-16.05845402 51.37551382 -22.29523232 38.92738553 -22 27 C-20.34787266 17.4444527 -16.3917512 7.8427823 -9 1.375 C-5.43087522 -0.26084886 -3.87397682 -0.7596033 0 0 Z " fill="#FEFEFE" transform="translate(462,187)"/>
<path d="M0 0 C-0.34308699 2.8114073 -0.56268576 4.53368022 -2.53125 6.6328125 C-3.1809375 7.12523437 -3.830625 7.61765625 -4.5 8.125 C-12.9226118 15.07819931 -19.53217104 23.59651311 -23 34 C-23.06665376 35.39439664 -23.08538199 36.79169875 -23.0625 38.1875 C-23.041875 39.445625 -23.02125 40.70375 -23 42 C-18.67889926 41.42198263 -14.42778144 40.71216204 -10.15283203 39.84399414 C1.84110982 37.43971853 10.58400929 36.66511775 21.3046875 43.4609375 C24.7732373 45.9638837 27.73399824 48.3168914 30 52 C30.328125 54.2890625 30.328125 54.2890625 30.25 56.625 C30.23453125 57.40101562 30.2190625 58.17703125 30.203125 58.9765625 C30 61 30 61 29 63 C26.35474197 62.04476793 24.18876915 61.14300693 21.9375 59.4375 C17.70202809 56.2950531 12.06638366 56.28186774 7 57 C2.55865819 58.70668773 -1.48559432 60.98228042 -5.4296875 63.6328125 C-10.09557058 66.1146652 -14.87379008 65.78864768 -20 65 C-23.30153365 63.66058777 -25.09785785 62.00366514 -27 59 C-28.1868572 55.69726291 -29.10886396 52.44636456 -29.8828125 49.0234375 C-31.2305668 45.37601852 -32.85874364 44.1959253 -36 42 C-39.07416987 38.04749588 -40.25400491 33.97358003 -40 29 C-38.11069428 19.70361492 -34.37105065 12.94121464 -26.7109375 7.3203125 C-19.78793751 2.90277917 -8.23805564 -4.11902782 0 0 Z " fill="#FEFEFE" transform="translate(417,48)"/>
<path d="M0 0 C2.8876227 0.33934096 4.56649846 0.59630208 6.72583008 2.60717773 C7.23525146 3.29239502 7.74467285 3.9776123 8.26953125 4.68359375 C8.84429199 5.44172363 9.41905273 6.19985352 10.01123047 6.98095703 C10.60564941 7.79161621 11.20006836 8.60227539 11.8125 9.4375 C13.06091743 11.09005568 14.30961335 12.74240102 15.55859375 14.39453125 C16.15397949 15.19197754 16.74936523 15.98942383 17.36279297 16.81103516 C27.54757149 30.4282025 37.65328736 39.93873467 52.9296875 47.6640625 C57.97862401 50.92205549 61.10398541 55.37385611 64.1875 60.4375 C64.86167969 61.52933594 65.53585937 62.62117188 66.23046875 63.74609375 C68.52882124 67.97242404 70.06121179 71.40849336 69.875 76.25 C69 79 69 79 67.1796875 80.1640625 C61.99579368 82.15215081 57.15332619 80.56964615 52.27734375 78.49609375 C27.70599862 67.24588112 14.00768529 46.28193298 4.4921875 21.7109375 C3.73325388 19.64482663 2.98551759 17.57456218 2.25 15.5 C1.90243652 14.52691895 1.55487305 13.55383789 1.19677734 12.55126953 C0.88949707 11.63716309 0.5822168 10.72305664 0.265625 9.78125 C-0.00475586 8.97751953 -0.27513672 8.17378906 -0.55371094 7.34570312 C-1.07287087 4.61698941 -0.70155397 2.66661491 0 0 Z " fill="#FEFEFE" transform="translate(233,440)"/>
<path d="M0 0 C2.3125 -0.25 2.3125 -0.25 5 0 C8.74133336 3.74133336 9.16966206 7.95792296 9.3125 13.0625 C9.2326811 20.52556669 6.99374733 27.44342041 2.875 33.6875 C-0.84811147 36.68217662 -2.95205603 36.25223411 -7.55859375 35.95703125 C-11.26686899 36.02229689 -13.27401356 37.61476187 -16 40 C-18.2773501 42.81509993 -18.2773501 42.81509993 -18 46 C-10.5345605 48.77476512 -3.93285519 49.36801906 4 49 C4.24234375 48.3709375 4.4846875 47.741875 4.734375 47.09375 C6.39425299 42.85467699 8.08609401 38.63160657 10 34.5 C10.28875 33.8709375 10.5775 33.241875 10.875 32.59375 C12.35849739 30.4921287 13.58372757 29.86295444 16 29 C18.546875 28.6015625 18.546875 28.6015625 21 29 C22.765625 30.8984375 22.765625 30.8984375 24.25 33.375 C24.75015625 34.18710937 25.2503125 34.99921875 25.765625 35.8359375 C28.09452675 39.91888551 28.62340272 43.31996216 28 48 C22.39471031 58.0428107 9.11567528 60.61920227 -1.1171875 63.62109375 C-6.58057433 64.72057201 -12.10463459 64.80188537 -17.25 62.625 C-25.83611334 54.42916453 -30.95920227 43.97737226 -31.4375 32 C-31.20057696 27.21766448 -29.34804628 24.34804628 -26 21 C-20.58204137 20.26315763 -16.11205566 21.22189368 -11 23 C-8.66787973 23.07522969 -6.3314689 23.09325876 -4 23 C-2.51566018 18.54698055 -3.08806645 14.20100016 -3.2578125 9.54296875 C-2.97614292 5.67214594 -1.94413501 3.32335121 0 0 Z " fill="#FEFEFE" transform="translate(336,462)"/>
<path d="M0 0 C1.65 0 3.3 0 5 0 C5.55751403 11.73257306 5.51824182 21.31345364 0 32 C-0.56976563 33.12664062 -1.13953125 34.25328125 -1.7265625 35.4140625 C-6.14922958 43.78142764 -11.6765238 51.16345013 -17.70605469 58.43481445 C-18.56696582 59.47619206 -19.41671885 60.52689802 -20.25488281 61.58666992 C-25.15182438 67.70206764 -31.27281028 72.83907205 -38.8125 75.1875 C-43.9268334 74.88665686 -46.8319784 73.02897141 -50.625 69.6875 C-56.70592648 62.80645161 -56.70592648 62.80645161 -57.4375 58.3125 C-56.88323434 55.38281006 -56.3624234 54.82337838 -54 53 C-51.35933307 52.05177357 -48.74108678 51.19677605 -46.0625 50.375 C-27.17497445 44.09648188 -13.9375902 28.45216152 -5.02880859 11.109375 C-3.24320442 7.45318285 -1.5868396 3.74618602 0 0 Z " fill="#FEFEFE" transform="translate(432,451)"/>
<path d="M0 0 C2.44787975 0.22914224 3.6941136 0.72814419 5.53613281 2.36523438 C8.97349797 6.5582987 11.96090572 10.85344077 14.75 15.5 C19.27684636 22.8899947 24.01489758 30.11079824 28.85791016 37.29638672 C29.89840153 38.84844932 30.9246038 40.41006711 31.94921875 41.97265625 C36.54221969 48.97289038 41.38965631 55.75912286 46.3449707 62.50708008 C56.07347687 75.82437013 56.07347687 75.82437013 55.8125 80 C55.544375 80.66 55.27625 81.32 55 82 C49.99062182 82.52730297 47.94989633 82.65936651 43.73046875 79.73046875 C38.78050747 75.2200179 35.43190559 69.55646277 31.875 63.9375 C31.12833326 62.77378318 30.38092719 61.61054042 29.6328125 60.44775391 C27.40507186 56.97566048 25.20103328 53.48908643 23 50 C22.37125977 49.00726074 21.74251953 48.01452148 21.09472656 46.99169922 C-2.96134399 8.92167672 -2.96134399 8.92167672 -2 2 C-1.34 1.34 -0.68 0.68 0 0 Z " fill="#FEFEFE" transform="translate(198,445)"/>
<path d="M0 0 C3.17664849 2.26820803 6.2322194 4.4644388 8 8 C8.04022391 10.3329866 8.04320247 12.66706666 8 15 C2.25 14.25 2.25 14.25 0 12 C-2.57061311 11.35232207 -2.57061311 11.35232207 -5 11 C-4.505 14.465 -4.505 14.465 -4 18 C-4.70125 18.06058594 -5.4025 18.12117188 -6.125 18.18359375 C-11.76817235 18.68197174 -17.38364117 19.25821676 -23 20 C-23 18.02 -23 16.04 -23 14 C-26.267453 16.1005055 -29.14273505 18.11566482 -31.9375 20.8125 C-35 23 -35 23 -38.8125 22.9375 C-40.3903125 22.4734375 -40.3903125 22.4734375 -42 22 C-43.77969931 18.44060138 -42.97654168 14.75639037 -42 11 C-38.37557786 4.43001575 -33.5022911 -0.31053286 -26.375 -2.75 C-16.96353282 -5.27741181 -8.58394409 -4.78019297 0 0 Z " fill="#FEFEFE" transform="translate(279,207)"/>
<path d="M0 0 C9.29766972 0.44718251 19.24793073 3.91199323 25.90234375 10.56640625 C33.13412141 20.06253699 39.98812888 33.78517469 38.5859375 45.9375 C38.245625 47.54625 38.245625 47.54625 37.8984375 49.1875 C36.2109375 49.875 36.2109375 49.875 33.8984375 50.1875 C25.27283305 46.45750889 20.63610434 38.465253 16.6484375 30.4375 C11.75310283 21.04755306 6.36579265 13.73004707 -2.3984375 7.57421875 C-4.1015625 6.1875 -4.1015625 6.1875 -4.4140625 3.5625 C-3.94303517 -0.01730774 -3.71535567 0.22460588 0 0 Z " fill="#FEFEFE" transform="translate(426.1015625,117.8125)"/>
<path d="M0 0 C2.875 -0.1875 2.875 -0.1875 6 0 C7.90765822 2.86148733 8.4283509 4.35300379 9.0625 7.625 C9.47094016 10.59769652 9.47094016 10.59769652 11 13 C14.97730012 13.3824327 17.25804576 13.46587824 20.6875 11.3125 C23.09601519 9.05515766 23.09601519 9.05515766 24.875 6.1875 C25.57625 5.465625 26.2775 4.74375 27 4 C30.41293795 4.11768752 32.94034627 4.47017314 36 6 C35.52256787 10.76740203 34.406258 13.30159774 31.3125 16.9375 C30.58417969 17.79472656 29.85585937 18.65195312 29.10546875 19.53515625 C28.41066406 20.34855469 27.71585938 21.16195313 27 22 C26.25169922 23.01900391 26.25169922 23.01900391 25.48828125 24.05859375 C21.64925296 29.17363144 17.20141831 31.51204359 11 33 C7.69979577 33.39066022 6.33214027 33.05517775 3 32 C-0.63695698 28.81469127 -3.80164335 25.23720288 -4.23828125 20.3125 C-4.41044859 12.62839961 -3.47573861 6.87389377 0 0 Z " fill="#FEFEFE" transform="translate(148,257)"/>
<path d="M0 0 C2.90702402 2.81893238 4.01482248 4.34443415 4.3125 8.4375 C4.07922173 11.76171535 3.61910375 13.18946545 2.0625 16 C1.39154297 15.40251953 1.39154297 15.40251953 0.70703125 14.79296875 C-2.68529939 11.82015875 -5.95590224 9.1717806 -9.9375 7 C-9.6075 8.98 -9.2775 10.96 -8.9375 13 C-9.906875 12.855625 -10.87625 12.71125 -11.875 12.5625 C-12.51953125 12.47742188 -13.1640625 12.39234375 -13.828125 12.3046875 C-15.22055085 12.10355932 -16.60750897 11.85934926 -17.984375 11.5703125 C-24.11300347 10.4743169 -28.50185705 11.90792751 -34.23828125 14.1875 C-37.03516016 15.02939698 -38.2523189 15.02049638 -40.9375 14 C-41.30113636 8.54545455 -41.30113636 8.54545455 -39.8125 6.3125 C-37.9375 5 -37.9375 5 -35 3.625 C-31.81302461 2.2099433 -31.81302461 2.2099433 -30 -0.5625 C-22.89594991 -8.95819556 -7.9340182 -5.40188473 0 0 Z " fill="#FEFEFE" transform="translate(402.9375,213)"/>
<path d="M0 0 C7.06049149 2.03969754 7.06049149 2.03969754 9 5 C10.12202994 9.66073977 10.35263659 12.76525414 8 17 C6.8125 18.8125 6.8125 18.8125 5 20 C1.3125 20.1875 1.3125 20.1875 -2 20 C-1.09677419 13.41935484 -1.09677419 13.41935484 -0.4375 10.5625 C0.16911185 7.00948776 0.06106925 3.60308596 0 0 Z " fill="#FEFEFE" transform="translate(350,296)"/>
<path d="M0 0 C2 3 2 3 1.8125 6 C0.61798753 10.41050757 0.61798753 10.41050757 -2 12 C-4.5625 11.875 -4.5625 11.875 -7 11 C-9 8 -9 8 -8.75 4.375 C-8.5025 3.26125 -8.255 2.1475 -8 1 C-5.21136993 -0.39431504 -3.07921132 -0.25660094 0 0 Z " fill="#FEFEFE" transform="translate(276,227)"/>
<path d="M0 0 C1.98 0.66 3.96 1.32 6 2 C7.33359073 8.42548263 7.33359073 8.42548263 5.875 10.9375 C3.37987679 12.35140315 1.82190981 12.43413997 -1 12 C-3.31282587 8.53076119 -3.42478586 7.07794425 -3 3 C-1.5 1.125 -1.5 1.125 0 0 Z " fill="#FEFEFE" transform="translate(380,227)"/>
</svg>
