<?xml version="1.0" standalone="no"?>
<!DOCTYPE svg PUBLIC "-//W3C//DTD SVG 20010904//EN"
 "http://www.w3.org/TR/2001/REC-SVG-20010904/DTD/svg10.dtd">
<svg version="1.0" xmlns="http://www.w3.org/2000/svg"
 width="1279.000000pt" height="1181.000000pt" viewBox="0 0 1279.000000 1181.000000"
 preserveAspectRatio="xMidYMid meet">

<g transform="translate(0.000000,1181.000000) scale(0.100000,-0.100000)"
fill="#000000" stroke="none">
<path d="M0 5905 l0 -5905 6395 0 6395 0 0 5905 0 5905 -6395 0 -6395 0 0
-5905z m10935 1329 c395 -75 687 -338 823 -739 147 -431 115 -1023 -74 -1397
-114 -226 -319 -414 -547 -504 -280 -111 -658 -108 -943 6 -449 180 -694 637
-694 1296 0 368 83 682 243 919 164 242 447 400 781 435 105 11 308 3 411 -16z
m-8855 -39 c379 -64 589 -238 644 -534 70 -372 -101 -674 -466 -821 -32 -13
-58 -28 -58 -33 0 -8 96 -161 451 -720 161 -254 254 -345 375 -369 82 -15 85
-19 82 -97 l-3 -66 -170 1 c-305 3 -430 55 -549 229 -22 33 -158 256 -302 495
l-261 435 -157 3 -156 3 0 -413 c0 -253 4 -427 10 -450 26 -91 99 -137 234
-145 66 -4 94 -10 104 -21 13 -17 16 -81 6 -119 l-6 -23 -532 0 c-400 0 -535
3 -544 12 -7 7 -12 36 -12 64 0 70 15 84 88 84 127 1 209 40 245 118 l22 47 0
1000 c0 798 -3 1007 -13 1037 -32 91 -94 128 -231 139 -61 4 -96 12 -102 20
-11 17 -12 110 -1 125 4 7 16 14 27 17 11 3 281 4 600 2 473 -3 597 -7 675
-20z m2573 -4 c373 -78 625 -264 780 -576 103 -208 147 -421 148 -720 2 -454
-113 -794 -347 -1028 -148 -148 -305 -231 -544 -289 -94 -22 -102 -23 -780
-23 l-685 0 -3 63 c-4 78 6 92 66 92 94 0 168 20 210 56 82 69 77 2 77 1119 0
958 -1 992 -19 1035 -40 92 -88 120 -222 130 -51 4 -97 11 -103 14 -12 8 -15
115 -3 132 4 6 14 14 22 17 8 4 305 5 660 3 602 -4 651 -5 743 -25z m2130 15
c7 -8 80 -198 161 -423 81 -224 165 -455 186 -513 74 -203 393 -1085 407
-1128 23 -66 11 -94 233 528 519 1452 542 1514 557 1530 12 13 72 15 409 16
447 2 424 6 424 -77 0 -81 -9 -89 -93 -89 -125 0 -193 -32 -237 -110 l-25 -45
-3 -980 c-2 -667 1 -996 8 -1030 25 -114 88 -160 235 -171 104 -7 115 -15 115
-85 0 -87 48 -79 -500 -79 -424 0 -489 2 -500 15 -15 19 -7 124 10 135 7 4 39
10 72 14 121 12 170 60 187 181 13 86 15 1981 2 1989 -4 3 -65 -155 -135 -352
-70 -196 -181 -505 -246 -687 -65 -181 -153 -427 -195 -545 -42 -118 -97 -271
-122 -340 -24 -69 -65 -183 -90 -255 -25 -71 -50 -136 -55 -142 -14 -18 -192
-18 -206 0 -6 6 -197 526 -426 1155 -228 628 -420 1150 -425 1160 -7 12 -10
-306 -8 -1003 l2 -1020 25 -44 c34 -60 63 -79 140 -92 122 -19 111 -10 108
-92 l-3 -72 -419 -3 c-318 -2 -422 1 -433 10 -19 15 -13 125 6 137 7 5 51 11
98 14 143 10 209 58 233 172 7 34 10 359 8 1025 -3 912 -4 978 -21 1015 -39
85 -93 116 -224 125 -51 3 -96 10 -100 14 -4 4 -6 35 -5 69 2 44 7 66 19 75
26 19 806 17 826 -2z"/>
<path d="M10470 7027 c-380 -98 -550 -454 -550 -1146 0 -491 84 -796 270 -981
130 -130 265 -180 484 -180 150 0 238 18 342 70 281 138 414 490 414 1095 0
355 -52 651 -143 820 -130 240 -318 346 -612 344 -90 0 -141 -6 -205 -22z"/>
<path d="M1512 6469 l3 -564 140 -3 c423 -9 592 80 657 348 28 111 30 341 5
443 -34 137 -100 228 -201 277 -91 43 -152 53 -384 57 l-222 5 2 -563z"/>
<path d="M3962 5883 l3 -1138 165 -3 c373 -7 559 45 727 201 208 195 306 499
306 947 0 194 -15 333 -48 463 -89 351 -260 551 -545 637 -68 21 -101 23 -343
27 l-267 5 2 -1139z"/>
</g>
</svg>
